<svg width="21" height="21" viewBox="0 0 21 21" fill="none" xmlns="http://www.w3.org/2000/svg">
<g clip-path="url(#clip0_915:1250)">
<path d="M20.712 18.9992L15.0301 13.1826C16.1307 11.7909 16.7933 10.0225 16.7933 8.0964C16.7933 3.63231 13.2451 0 8.88443 0C4.52373 0 0.975586 3.63227 0.975586 8.09636C0.975586 12.5604 4.52377 16.1928 8.88447 16.1928C10.7659 16.1928 12.4934 15.5144 13.8529 14.3877L19.5348 20.2043C19.6971 20.3705 19.9102 20.454 20.1234 20.454C20.3365 20.454 20.5497 20.3705 20.712 20.2043C21.0375 19.8711 21.0375 19.3324 20.712 18.9992ZM8.88447 14.4882C5.44119 14.4882 2.64062 11.6213 2.64062 8.09636C2.64062 4.57143 5.44119 1.70448 8.88447 1.70448C12.3278 1.70448 15.1283 4.57143 15.1283 8.09636C15.1283 11.6213 12.3277 14.4882 8.88447 14.4882Z" fill="#585050"/>
</g>
<defs>
<clipPath id="clip0_915:1250">
<rect width="19.9805" height="20.4542" fill="white" transform="translate(0.975586 0.454102)"/>
</clipPath>
</defs>
</svg>
