<svg width="41" height="42" viewBox="0 0 41 42" fill="none" xmlns="http://www.w3.org/2000/svg">
<ellipse cx="20.7322" cy="20.6815" rx="20.1365" ry="20.4542" fill="#0E49B5"/>
<g clip-path="url(#clip0_915:1271)">
<path d="M21.0184 33.9767H19.4387C18.1611 33.9767 17.1216 32.9208 17.1216 31.623V31.0802C16.5784 30.9039 16.0506 30.6814 15.5436 30.4149L15.1649 30.7996C14.2476 31.7325 12.7782 31.7051 11.8875 30.7992L10.771 29.6651C9.87882 28.7598 9.85316 27.2678 10.7713 26.3361L11.1498 25.9517C10.8874 25.4367 10.6684 24.9007 10.4948 24.3488H9.96043C8.68283 24.3488 7.64331 23.293 7.64331 21.9952V20.3905C7.64331 19.0927 8.68283 18.0368 9.96048 18.0368H10.4949C10.6684 17.485 10.8875 16.949 11.1498 16.434L10.7711 16.0493C9.85345 15.1182 9.87877 13.626 10.7714 12.7203L11.888 11.5861C12.7807 10.678 14.2497 10.6554 15.1653 11.5864L15.5437 11.9707C16.0507 11.7043 16.5784 11.4818 17.1216 11.3054V10.7626C17.1216 9.4648 18.1611 8.40894 19.4388 8.40894H21.0185C22.2961 8.40894 23.3356 9.4648 23.3356 10.7626V11.3055C23.8788 11.4818 24.4065 11.7043 24.9135 11.9708L25.2923 11.5861C26.2096 10.6532 27.6789 10.6805 28.5696 11.5864L29.6861 12.7205C30.5783 13.6258 30.604 15.1179 29.6858 16.0496L29.3074 16.434C29.5697 16.949 29.7887 17.4849 29.9623 18.0368H30.4967C31.7744 18.0368 32.8139 19.0927 32.8139 20.3905V21.9952C32.8139 23.293 31.7744 24.3488 30.4967 24.3488H29.9623C29.7887 24.9007 29.5697 25.4367 29.3074 25.9517L29.6861 26.3364C30.6037 27.2675 30.5784 28.7597 29.6858 29.6654L28.5692 30.7996C27.6765 31.7077 26.2074 31.7303 25.2919 30.7993L24.9135 30.4149C24.4065 30.6814 23.8788 30.9039 23.3356 31.0803V31.6231C23.3356 32.9208 22.2961 33.9767 21.0184 33.9767ZM15.7902 28.8417C16.4945 29.2648 17.2526 29.5844 18.0433 29.7917C18.3689 29.8771 18.5964 30.1754 18.5964 30.517V31.623C18.5964 32.0948 18.9743 32.4786 19.4388 32.4786H21.0185C21.4829 32.4786 21.8608 32.0948 21.8608 31.623V30.517C21.8608 30.1754 22.0883 29.8771 22.414 29.7917C23.2047 29.5844 23.9627 29.2648 24.6671 28.8417C24.9569 28.6676 25.3258 28.7149 25.5639 28.9568L26.3352 29.7403C26.6677 30.0784 27.2017 30.0706 27.526 29.7406L28.6433 28.6057C28.9669 28.2774 28.9777 27.7349 28.6436 27.396L27.872 26.6122C27.634 26.3704 27.5874 25.9956 27.7587 25.7013C28.1753 24.9859 28.4899 24.2159 28.694 23.4126C28.778 23.0818 29.0717 22.8508 29.408 22.8508H30.4968C30.9612 22.8508 31.3391 22.467 31.3391 21.9952V20.3905C31.3391 19.9188 30.9612 19.535 30.4968 19.535H29.408C29.0717 19.535 28.778 19.3039 28.694 18.9731C28.4899 18.1699 28.1752 17.3999 27.7587 16.6845C27.5874 16.3901 27.634 16.0153 27.872 15.7735L28.6433 14.99C28.9767 14.6518 28.968 14.1095 28.6436 13.7803L27.5264 12.6455C27.2026 12.3161 26.6685 12.3065 26.3355 12.6452L25.564 13.429C25.3259 13.6708 24.9568 13.7181 24.6671 13.5441C23.9628 13.1209 23.2047 12.8013 22.414 12.594C22.0884 12.5087 21.8608 12.2103 21.8608 11.8687V10.7626C21.8608 10.2909 21.4829 9.90705 21.0185 9.90705H19.4388C18.9744 9.90705 18.5965 10.2909 18.5965 10.7626V11.8686C18.5965 12.2102 18.369 12.5086 18.0433 12.5939C17.2526 12.8012 16.4945 13.1208 15.7902 13.544C15.5004 13.718 15.1314 13.6707 14.8934 13.4289L14.1221 12.6454C13.7896 12.3072 13.2556 12.3151 12.9312 12.645L11.814 13.7799C11.4904 14.1082 11.4796 14.6507 11.8137 14.9896L12.5852 15.7734C12.8233 16.0152 12.8699 16.39 12.6986 16.6844C12.282 17.3998 11.9674 18.1698 11.7633 18.973C11.6793 19.3038 11.3856 19.5349 11.0493 19.5349H9.96048C9.49605 19.5349 9.11815 19.9187 9.11815 20.3905V21.9952C9.11815 22.4669 9.49605 22.8507 9.96048 22.8507H11.0493C11.3856 22.8507 11.6792 23.0818 11.7633 23.4126C11.9673 24.2158 12.282 24.9858 12.6985 25.7012C12.8698 25.9956 12.8232 26.3704 12.5852 26.6122L11.8139 27.3957C11.4805 27.7339 11.4892 28.2762 11.8136 28.6054L12.9308 29.7402C13.2546 30.0696 13.7887 30.0792 14.1217 29.7405L14.8933 28.9567C15.0687 28.7786 15.4336 28.6275 15.7902 28.8417Z" fill="white"/>
<path d="M20.2285 26.7559C17.2087 26.7559 14.752 24.2603 14.752 21.1929C14.752 18.1254 17.2087 15.6299 20.2285 15.6299C23.2483 15.6299 25.7051 18.1254 25.7051 21.1929C25.7051 24.2603 23.2483 26.7559 20.2285 26.7559ZM20.2285 17.128C18.0219 17.128 16.2268 18.9515 16.2268 21.1929C16.2268 23.4342 18.022 25.2577 20.2285 25.2577C22.4351 25.2577 24.2302 23.4342 24.2302 21.1929C24.2302 18.9515 22.4351 17.128 20.2285 17.128Z" fill="white"/>
</g>
<defs>
<clipPath id="clip0_915:1271">
<rect width="25.1706" height="25.5678" fill="white" transform="translate(7.64331 8.40894)"/>
</clipPath>
</defs>
</svg>
